<svg
                width="14"
                height="14"
                viewBox="0 0 14 14"
                fill="none"
                xmlns="http://www.w3.org/2000/svg"
              >
                <path
                  d="M4.36328 10.7042L6.17161 12.1042C6.40495 12.3375 6.92995 12.4542 7.27995 12.4542H9.49662C10.1966 12.4542 10.9549 11.9292 11.1299 11.2292L12.5299 6.97084C12.8216 6.15417 12.2966 5.45417 11.4216 5.45417H9.08828C8.73828 5.45417 8.44661 5.16251 8.50495 4.75417L8.79661 2.88751C8.91328 2.36251 8.56328 1.77917 8.03828 1.60417C7.57161 1.42917 6.98828 1.66251 6.75495 2.01251L4.36328 5.57084"
                  stroke="#4F4F4F"
                  stroke-miterlimit="10"
                />
                <path
                  d="M1.38831 10.7042V4.9875C1.38831 4.17083 1.73831 3.87917 2.55497 3.87917H3.13831C3.95497 3.87917 4.30497 4.17083 4.30497 4.9875V10.7042C4.30497 11.5208 3.95497 11.8125 3.13831 11.8125H2.55497C1.73831 11.8125 1.38831 11.5208 1.38831 10.7042Z"
                  stroke="#4F4F4F"
                  stroke-linecap="round"
                  stroke-linejoin="round"
                />
              </svg>